HIERARCHY
ROOT mixamorig:Hips
{
	OFFSET 0.000000 209.150803 0.000000
	CHANNELS 6 Xposition Yposition Zposition Xrotation Yrotation Zrotation
	JOINT mixamorig:Spine
	{
		OFFSET -0.194800 19.804794 -3.889700
		CHANNELS 3 Xrotation Yrotation Zrotation
		JOINT mixamorig:Spine1
		{
			OFFSET -0.270429 23.500320 -2.360300
			CHANNELS 3 Xrotation Yrotation Zrotation
			JOINT mixamorig:Spine2
			{
				OFFSET -0.109117 27.807632 -1.195364
				CHANNELS 3 Xrotation Yrotation Zrotation
				JOINT mixamorig:Neck
				{
					OFFSET 0.573016 31.061890 3.761678
					CHANNELS 3 Xrotation Yrotation Zrotation
					JOINT mixamorig:Head
					{
						OFFSET 1.041823 22.231018 6.513479
						CHANNELS 3 Xrotation Yrotation Zrotation
						JOINT mixamorig:HeadTop_End
						{
							OFFSET 0.153850 38.312347 10.826404
							CHANNELS 3 Xrotation Yrotation Zrotation
							End Site
							{
								OFFSET 1.323040 28.231781 8.271643
							}
						}
						JOINT mixamorig:RightEye
						{
							OFFSET -6.116954 16.475952 16.456991
							CHANNELS 3 Xrotation Yrotation Zrotation
							End Site
							{
								OFFSET 1.323041 28.231812 8.271650
							}
						}
						JOINT mixamorig:LeftEye
						{
							OFFSET 6.085515 16.736328 16.760441
							CHANNELS 3 Xrotation Yrotation Zrotation
							End Site
							{
								OFFSET 1.323041 28.231812 8.271652
							}
						}
					}
				}
				JOINT mixamorig:LeftShoulder
				{
					OFFSET 12.954108 18.894745 2.678193
					CHANNELS 3 Xrotation Yrotation Zrotation
					JOINT mixamorig:LeftArm
					{
						OFFSET 26.260839 0.777679 -4.054178
						CHANNELS 3 Xrotation Yrotation Zrotation
						JOINT mixamorig:LeftForeArm
						{
							OFFSET 55.127693 0.000000 -0.000001
							CHANNELS 3 Xrotation Yrotation Zrotation
							JOINT mixamorig:LeftHand
							{
								OFFSET 52.773346 0.000000 -0.000003
								CHANNELS 3 Xrotation Yrotation Zrotation
								JOINT mixamorig:LeftHandMiddle1
								{
									OFFSET 27.744598 0.000000 -0.000001
									CHANNELS 3 Xrotation Yrotation Zrotation
									JOINT mixamorig:LeftHandMiddle2
									{
										OFFSET 6.931610 0.000000 0.000000
										CHANNELS 3 Xrotation Yrotation Zrotation
										JOINT mixamorig:LeftHandMiddle3
										{
											OFFSET 6.823593 0.000000 0.000000
											CHANNELS 3 Xrotation Yrotation Zrotation
											JOINT mixamorig:LeftHandMiddle4
											{
												OFFSET 7.392700 0.000000 0.000000
												CHANNELS 3 Xrotation Yrotation Zrotation
												End Site
												{
													OFFSET 7.392700 0.000000 0.000000
												}
											}
										}
									}
								}
								JOINT mixamorig:LeftHandThumb1
								{
									OFFSET 11.123093 -3.292908 6.128040
									CHANNELS 3 Xrotation Yrotation Zrotation
									JOINT mixamorig:LeftHandThumb2
									{
										OFFSET 8.694305 -5.019653 5.019662
										CHANNELS 3 Xrotation Yrotation Zrotation
										JOINT mixamorig:LeftHandThumb3
										{
											OFFSET 6.937027 -4.004974 4.005064
											CHANNELS 3 Xrotation Yrotation Zrotation
											JOINT mixamorig:LeftHandThumb4
											{
												OFFSET 4.488358 -2.591461 2.591379
												CHANNELS 3 Xrotation Yrotation Zrotation
												End Site
												{
													OFFSET 4.488403 -2.591370 2.591379
												}
											}
										}
									}
								}
								JOINT mixamorig:LeftHandIndex1
								{
									OFFSET 28.490189 -0.455902 5.151994
									CHANNELS 3 Xrotation Yrotation Zrotation
									JOINT mixamorig:LeftHandIndex2
									{
										OFFSET 7.062897 -0.000092 -0.000000
										CHANNELS 3 Xrotation Yrotation Zrotation
										JOINT mixamorig:LeftHandIndex3
										{
											OFFSET 6.495300 0.000092 -0.000000
											CHANNELS 3 Xrotation Yrotation Zrotation
											JOINT mixamorig:LeftHandIndex4
											{
												OFFSET 6.593414 0.000000 -0.000000
												CHANNELS 3 Xrotation Yrotation Zrotation
												End Site
												{
													OFFSET 6.593399 0.000000 -0.000000
												}
											}
										}
									}
								}
								JOINT mixamorig:LeftHandRing1
								{
									OFFSET 25.484100 0.080292 -4.240984
									CHANNELS 3 Xrotation Yrotation Zrotation
									JOINT mixamorig:LeftHandRing2
									{
										OFFSET 6.309814 0.000000 0.000000
										CHANNELS 3 Xrotation Yrotation Zrotation
										JOINT mixamorig:LeftHandRing3
										{
											OFFSET 6.359482 0.000000 0.000000
											CHANNELS 3 Xrotation Yrotation Zrotation
											JOINT mixamorig:LeftHandRing4
											{
												OFFSET 7.037811 0.000000 0.000000
												CHANNELS 3 Xrotation Yrotation Zrotation
												End Site
												{
													OFFSET 7.037796 0.000000 0.000000
												}
											}
										}
									}
								}
								JOINT mixamorig:LeftHandPinky1
								{
									OFFSET 21.905792 -0.438965 -8.781003
									CHANNELS 3 Xrotation Yrotation Zrotation
									JOINT mixamorig:LeftHandPinky2
									{
										OFFSET 6.536713 0.000000 0.000000
										CHANNELS 3 Xrotation Yrotation Zrotation
										JOINT mixamorig:LeftHandPinky3
										{
											OFFSET 4.149094 0.000000 0.000000
											CHANNELS 3 Xrotation Yrotation Zrotation
											JOINT mixamorig:LeftHandPinky4
											{
												OFFSET 5.563507 0.000000 0.000000
												CHANNELS 3 Xrotation Yrotation Zrotation
												End Site
												{
													OFFSET 5.563507 0.000000 0.000000
												}
											}
										}
									}
								}
							}
						}
					}
				}
				JOINT mixamorig:RightShoulder
				{
					OFFSET -12.637339 19.215179 2.180936
					CHANNELS 3 Xrotation Yrotation Zrotation
					JOINT mixamorig:RightArm
					{
						OFFSET -26.335464 0.457367 -5.423028
						CHANNELS 3 Xrotation Yrotation Zrotation
						JOINT mixamorig:RightForeArm
						{
							OFFSET -55.842728 0.000000 0.000000
							CHANNELS 3 Xrotation Yrotation Zrotation
							JOINT mixamorig:RightHand
							{
								OFFSET -50.313705 0.000000 -0.000001
								CHANNELS 3 Xrotation Yrotation Zrotation
								JOINT mixamorig:RightHandMiddle1
								{
									OFFSET -26.065521 0.000000 -0.000001
									CHANNELS 3 Xrotation Yrotation Zrotation
									JOINT mixamorig:RightHandMiddle2
									{
										OFFSET -6.160004 0.000000 0.000000
										CHANNELS 3 Xrotation Yrotation Zrotation
										JOINT mixamorig:RightHandMiddle3
										{
											OFFSET -7.279114 0.000000 0.000000
											CHANNELS 3 Xrotation Yrotation Zrotation
											JOINT mixamorig:RightHandMiddle4
											{
												OFFSET -7.459976 0.000000 0.000000
												CHANNELS 3 Xrotation Yrotation Zrotation
												End Site
												{
													OFFSET -7.460007 0.000000 0.000000
												}
											}
										}
									}
								}
								JOINT mixamorig:RightHandThumb1
								{
									OFFSET -9.502014 -3.930664 6.156682
									CHANNELS 3 Xrotation Yrotation Zrotation
									JOINT mixamorig:RightHandThumb2
									{
										OFFSET -8.016388 -4.628265 4.628259
										CHANNELS 3 Xrotation Yrotation Zrotation
										JOINT mixamorig:RightHandThumb3
										{
											OFFSET -6.641937 -3.834717 3.834726
											CHANNELS 3 Xrotation Yrotation Zrotation
											JOINT mixamorig:RightHandThumb4
											{
												OFFSET -4.755112 -2.745483 2.745390
												CHANNELS 3 Xrotation Yrotation Zrotation
												End Site
												{
													OFFSET -4.755173 -2.745392 2.745400
												}
											}
										}
									}
								}
								JOINT mixamorig:RightHandIndex1
								{
									OFFSET -26.603027 -0.546844 5.106643
									CHANNELS 3 Xrotation Yrotation Zrotation
									JOINT mixamorig:RightHandIndex2
									{
										OFFSET -7.092102 0.000000 0.000000
										CHANNELS 3 Xrotation Yrotation Zrotation
										JOINT mixamorig:RightHandIndex3
										{
											OFFSET -7.414398 0.000000 0.000000
											CHANNELS 3 Xrotation Yrotation Zrotation
											JOINT mixamorig:RightHandIndex4
											{
												OFFSET -5.522491 0.000000 0.000000
												CHANNELS 3 Xrotation Yrotation Zrotation
												End Site
												{
													OFFSET -5.522507 0.000000 0.000000
												}
											}
										}
									}
								}
								JOINT mixamorig:RightHandRing1
								{
									OFFSET -24.087219 0.001831 -3.983901
									CHANNELS 3 Xrotation Yrotation Zrotation
									JOINT mixamorig:RightHandRing2
									{
										OFFSET -6.857513 0.000000 0.000000
										CHANNELS 3 Xrotation Yrotation Zrotation
										JOINT mixamorig:RightHandRing3
										{
											OFFSET -6.835495 0.000000 0.000000
											CHANNELS 3 Xrotation Yrotation Zrotation
											JOINT mixamorig:RightHandRing4
											{
												OFFSET -6.017212 0.000000 0.000000
												CHANNELS 3 Xrotation Yrotation Zrotation
												End Site
												{
													OFFSET -6.017197 0.000000 0.000000
												}
											}
										}
									}
								}
								JOINT mixamorig:RightHandPinky1
								{
									OFFSET -20.989426 -0.496796 -8.541155
									CHANNELS 3 Xrotation Yrotation Zrotation
									JOINT mixamorig:RightHandPinky2
									{
										OFFSET -5.939606 0.000000 0.000000
										CHANNELS 3 Xrotation Yrotation Zrotation
										JOINT mixamorig:RightHandPinky3
										{
											OFFSET -3.764709 0.000000 0.000000
											CHANNELS 3 Xrotation Yrotation Zrotation
											JOINT mixamorig:RightHandPinky4
											{
												OFFSET -6.370499 0.000092 0.000000
												CHANNELS 3 Xrotation Yrotation Zrotation
												End Site
												{
													OFFSET -6.370499 0.000000 0.000000
												}
											}
										}
									}
								}
							}
						}
					}
				}
			}
		}
	}
	JOINT mixamorig:LeftUpLeg
	{
		OFFSET 18.524401 -13.838501 2.662000
		CHANNELS 3 Xrotation Yrotation Zrotation
		JOINT mixamorig:LeftLeg
		{
			OFFSET -0.428549 -85.231133 -1.510798
			CHANNELS 3 Xrotation Yrotation Zrotation
			JOINT mixamorig:LeftFoot
			{
				OFFSET 0.428570 -85.415253 -5.144529
				CHANNELS 3 Xrotation Yrotation Zrotation
				JOINT mixamorig:LeftToeBase
				{
					OFFSET 2.692511 -21.394855 24.290728
					CHANNELS 3 Xrotation Yrotation Zrotation
					JOINT mixamorig:LeftToe_End
					{
						OFFSET -0.329533 0.250487 19.060305
						CHANNELS 3 Xrotation Yrotation Zrotation
						End Site
						{
							OFFSET -0.329533 0.250487 19.060307
						}
					}
				}
			}
		}
	}
	JOINT mixamorig:RightUpLeg
	{
		OFFSET -18.440300 -14.411697 0.160300
		CHANNELS 3 Xrotation Yrotation Zrotation
		JOINT mixamorig:RightLeg
		{
			OFFSET 0.571552 -84.811859 1.002640
			CHANNELS 3 Xrotation Yrotation Zrotation
			JOINT mixamorig:RightFoot
			{
				OFFSET -0.571562 -85.261650 -5.157589
				CHANNELS 3 Xrotation Yrotation Zrotation
				JOINT mixamorig:RightToeBase
				{
					OFFSET -3.153635 -21.491173 24.818218
					CHANNELS 3 Xrotation Yrotation Zrotation
					JOINT mixamorig:RightToe_End
					{
						OFFSET -2.731159 0.224840 19.510790
						CHANNELS 3 Xrotation Yrotation Zrotation
						End Site
						{
							OFFSET -2.731159 0.224840 19.510788
						}
					}
				}
			}
		}
	}
}
MOTION
Frames: 4
Frame Time: 0.033333
1.279950 184.453217 -1.793868 -6.107878 -43.081828 -3.770498 5.867274 4.666149 -1.508968 11.836541 9.037617 -3.083969 11.836529 9.037617 -3.083964 -1.434770 -0.422541 0.079384 -9.161965 19.579731 -0.319070 -0.000008 0.000000 -0.000000 -0.000004 0.000000 -0.000000 -0.000004 0.000000 -0.000001 1.392503 -0.696045 -7.878107 -17.225682 0.898696 -63.191544 0.000010 -42.610603 -0.000005 11.900954 -1.704055 21.975111 0.436842 5.174675 -8.894402 0.224020 1.606078 -15.879215 0.347204 1.988650 -19.805701 -0.000001 0.000000 0.000001 38.404275 -1.269639 14.611673 3.631951 6.093783 -0.671470 -10.094537 -7.227380 9.095452 -0.000000 0.000002 0.000002 0.221388 -3.166075 -9.481603 0.086334 1.003104 -9.837807 0.145865 1.300539 -12.799403 0.000002 0.000003 -0.000001 2.827840 12.581958 -16.002865 0.312159 1.888475 -18.768834 0.425888 2.194710 -21.960914 0.000001 -0.000001 -0.000001 2.480845 12.169200 -24.496835 0.246228 1.682242 -16.654084 1.033157 3.323962 -34.524188 -0.000002 -0.000000 -0.000002 1.410985 9.461511 9.792407 -1.910876 -22.605623 59.287476 -0.000011 37.045956 0.000008 -7.499274 9.436028 4.506766 0.290996 -4.821895 5.957044 0.384908 -1.855656 23.435270 0.008286 -0.277920 3.413561 -0.000002 -0.000001 -0.000001 -16.380295 1.669850 -6.671173 11.172344 -26.973559 -3.853785 -6.427459 -2.791314 -13.487040 0.000004 0.000001 -0.000001 0.245351 -4.322143 6.246040 0.048907 -0.673863 8.301502 0.047669 -0.665335 8.195698 -0.000001 0.000000 0.000000 0.204241 -3.829869 7.019398 0.413571 -1.920366 24.304899 0.225614 -1.433396 17.888694 0.000001 0.000000 -0.000001 -0.701318 -2.585894 14.662883 0.245825 -1.494559 18.679944 0.689154 -2.439994 31.539269 -0.000001 0.000001 -0.000001 -36.125130 3.099367 15.276497 50.865160 -9.806161 -0.186795 -11.663863 -3.907769 -8.034825 -2.319086 0.000005 -0.000001 0.000000 0.000001 -0.000000 -10.870829 -11.138061 -18.260973 48.955398 -7.793460 -0.416955 -29.582386 -6.036289 18.965461 -1.784980 -0.000004 -0.000002 -0.000000 0.000001 0.000000 
1.448065 184.527756 -1.810889 -6.248795 -43.895382 -3.690166 6.254336 5.081193 -1.563891 11.656438 8.849397 -3.077286 11.661198 8.850918 -3.071718 -1.477867 0.033110 0.175735 -9.201079 19.825546 -0.627906 -0.000004 0.000000 0.000000 -0.000002 -0.000000 -0.000000 -0.000004 0.000000 0.000000 1.339309 -0.702279 -8.200301 -14.362163 0.810715 -63.165412 -0.000004 -43.025462 -0.000015 11.089785 -1.420211 21.360879 0.380024 5.006907 -7.947162 0.208485 1.550504 -15.315668 0.343320 1.977832 -19.693416 0.000001 -0.000002 0.000000 36.892041 -1.677897 14.406310 3.730055 7.099050 -0.470675 -12.249504 -3.984738 10.469506 -0.000001 -0.000001 -0.000001 0.270765 -3.377828 -8.785339 0.093883 1.045784 -10.260868 0.161055 1.365630 -13.451923 0.000002 -0.000001 -0.000001 2.514428 12.320441 -14.509031 0.332395 1.947025 -19.374059 0.455761 2.267335 -22.728248 0.000000 0.000000 -0.000000 2.622920 13.051883 -24.226345 0.234682 1.643106 -16.255449 1.147283 3.483786 -36.446320 0.000000 -0.000000 -0.000001 1.353302 9.918892 9.657114 -2.054913 -21.882792 59.210903 -0.000004 37.012952 0.000000 -7.277639 9.467052 4.449781 0.214819 -4.726137 4.106291 0.372791 -1.827468 23.058305 0.009588 -0.298776 3.670142 -0.000001 0.000000 0.000001 -16.076256 2.008858 -6.137691 10.291866 -26.270207 -4.529533 -8.134825 -1.227454 -16.929029 0.000001 0.000003 0.000003 0.226211 -4.078090 4.596124 0.045398 -0.649401 7.998106 0.051039 -0.688350 8.481234 -0.000001 0.000001 0.000000 0.209823 -4.190587 5.417609 0.385939 -1.858042 23.467253 0.215083 -1.400361 17.462840 0.000001 0.000001 -0.000003 -0.710032 -2.908296 16.468129 0.223103 -1.425653 17.788692 0.751422 -2.538554 32.972837 -0.000001 -0.000001 0.000000 -37.457007 2.503407 14.955690 52.638741 -8.968893 0.133852 -8.149799 -3.664927 -9.393148 -3.862034 0.000004 -0.000004 0.000000 0.000003 0.000000 -11.066885 -10.406998 -18.174486 48.987647 -7.729782 -0.826699 -29.442671 -6.167772 19.074965 -1.790144 -0.000016 0.000002 -0.000000 0.000001 -0.000000 
1.728839 184.948456 -1.796455 -6.520754 -45.078965 -3.623426 6.882892 5.375121 -1.904522 11.652037 8.620739 -3.129060 11.661885 8.627183 -3.106087 -1.651056 0.513099 0.324815 -9.868588 20.412717 -0.848019 -0.000002 0.000000 0.000000 -0.000001 0.000000 0.000000 -0.000002 0.000000 0.000000 1.210072 -0.995291 -7.971978 -10.167702 1.142450 -63.193033 0.000005 -45.136100 -0.000010 9.921738 -0.936276 20.763384 0.312722 4.729363 -6.970288 0.191542 1.487244 -14.676197 0.342651 1.975924 -19.673653 0.000001 0.000000 -0.000001 35.381702 -2.096182 14.167907 3.821557 8.087865 -0.264028 -15.017257 -2.205838 12.810074 0.000003 -0.000001 0.000002 0.363925 -3.629273 -7.590049 0.103739 1.098872 -10.787899 0.176975 1.430535 -14.104470 0.000003 -0.000000 -0.000001 2.211907 12.018742 -13.060759 0.347817 1.990332 -19.823096 0.487610 2.341820 -23.519963 0.000003 0.000000 0.000001 2.554140 13.426056 -23.244558 0.219584 1.590409 -15.720188 1.270873 3.644886 -38.434202 -0.000002 -0.000000 0.000001 1.207563 10.916759 9.554549 -2.006068 -20.831006 59.015642 -0.000016 37.207111 0.000022 -7.448764 9.358443 4.539535 0.115489 -4.618089 1.614080 0.365450 -1.810105 22.826699 0.011234 -0.323636 3.976040 0.000000 0.000000 -0.000001 -15.772312 2.352564 -5.608335 9.343695 -25.414140 -5.254938 -9.766133 2.032092 -21.451297 -0.000005 0.000003 -0.000003 0.218018 -3.911971 3.226263 0.045221 -0.648131 7.982362 0.054532 -0.711342 8.766728 -0.000000 0.000001 0.000000 0.156645 -4.255560 3.313671 0.359313 -1.795480 22.631764 0.206081 -1.371418 17.090506 -0.000000 -0.000001 0.000000 -0.616774 -3.177172 16.584119 0.201477 -1.356391 16.897495 0.814600 -2.633299 34.373221 0.000001 -0.000001 0.000000 -39.093619 1.982333 14.778023 54.208411 -7.931744 0.388495 -2.648121 -3.822896 -11.118677 -6.329159 -0.048227 1.850697 0.000000 -0.000003 0.000000 -11.226942 -9.789426 -18.372604 48.598111 -7.625341 -1.164312 -29.042043 -5.727418 19.172894 -1.827600 0.000011 0.000002 0.000000 0.000001 0.000000 
2.004462 185.834335 -1.563508 -6.987085 -46.538033 -3.662671 7.677877 5.469332 -2.626214 11.827680 8.334610 -3.233526 11.842764 8.348243 -3.182736 -1.950799 1.013391 0.555774 -10.997964 21.149011 -0.653712 -0.000002 0.000000 0.000000 -0.000002 0.000000 0.000000 -0.000001 0.000000 0.000000 0.985734 -1.650399 -6.989779 -5.233663 1.813647 -63.768299 -0.000012 -48.003956 -0.000023 9.645632 -0.899098 21.474414 0.274266 4.649136 -5.974796 0.172584 1.412922 -13.927110 0.344949 1.982381 -19.740599 -0.000003 -0.000001 0.000001 33.873172 -2.523105 13.895839 3.893943 9.018989 -0.040580 -17.777628 -2.057697 15.916111 -0.000002 0.000002 0.000004 0.509825 -3.845690 -5.921657 0.110638 1.134451 -11.141764 0.193486 1.494678 -14.751300 -0.000002 -0.000001 0.000000 1.948175 11.872243 -11.544736 0.362587 2.030788 -20.243890 0.518365 2.411199 -24.261624 0.000001 -0.000002 -0.000002 2.349052 13.507706 -21.836692 0.199172 1.516093 -14.967518 1.394974 3.795684 -40.346382 0.000003 -0.000001 -0.000002 0.945650 12.398301 9.759895 -1.253189 -18.959365 58.188998 -0.000008 38.235836 0.000007 -7.397067 9.209393 5.034832 0.068566 -4.265040 0.521182 0.360128 -1.797412 22.657486 0.012651 -0.343427 4.219602 -0.000001 -0.000000 -0.000000 -15.468481 2.700908 -5.083119 8.822042 -25.229257 -5.617746 -11.126148 4.968870 -25.412489 -0.000002 -0.000002 0.000001 0.365849 -3.690197 5.390034 0.072616 -0.820115 10.120625 0.058144 -0.734310 9.052256 -0.000002 -0.000000 -0.000000 0.107796 -4.190216 1.795440 0.337604 -1.742494 21.928094 0.193230 -1.328910 16.545095 -0.000001 0.000000 -0.000001 -0.363556 -3.555763 16.083912 0.180414 -1.285034 15.983652 0.882537 -2.729864 35.825288 0.000001 0.000000 0.000002 -40.258665 1.792158 14.747294 55.812351 -6.724448 0.442921 2.124104 -4.377182 -11.432967 -7.676835 -0.130143 2.423645 0.000000 0.000001 -0.000000 -11.001259 -9.223033 -18.635083 47.472526 -7.164853 -1.493759 -28.294412 -5.297413 19.104864 -1.886727 -0.000004 -0.000004 -0.000000 -0.000001 -0.000000 
